<svg height="512pt" viewBox="0 0 512 512" width="512pt" xmlns="http://www.w3.org/2000/svg"><path d="m46.875 185.167969h27.269531v171.558593h-27.269531zm0 0" fill="#c7c9d2"/><path d="m438.34375 185.167969h27.269531v171.558593h-27.269531zm0 0" fill="#c7c9d2"/><path d="m48.058594 388.050781v123.617188h415.882812v-124.644531zm0 0" fill="#ffc026"/><path d="m490.347656 150.183594h-468.695312l53.769531-106.5625h361.15625zm0 0" fill="#ecedf0"/><path d="m436.578125 43.621094h-52.539063l53.769532 106.5625h52.539062zm0 0" fill="#e2e2e2"/><path d="m74.28125 150.488281v40.035157c0 14.53125-11.78125 26.3125-26.316406 26.3125-14.53125 0-26.3125-11.78125-26.3125-26.3125v-40.035157zm0 0" fill="#ffc026"/><path d="m126.289062 150.488281v40.035157c0 14.53125-11.78125 26.3125-26.3125 26.3125-14.535156 0-26.316406-11.78125-26.316406-26.3125v-40.035157zm0 0" fill="#ffd775"/><path d="m178.296875 150.488281v40.035157c0 14.53125-11.78125 26.3125-26.3125 26.3125-14.535156 0-26.316406-11.78125-26.316406-26.3125v-40.035157zm0 0" fill="#ffc026"/><path d="m230.304688 150.488281v40.035157c0 14.53125-11.78125 26.3125-26.3125 26.3125-14.535157 0-26.316407-11.78125-26.316407-26.3125v-40.035157zm0 0" fill="#ffd775"/><path d="m282.3125 150.488281v40.035157c0 14.53125-11.78125 26.3125-26.3125 26.3125s-26.3125-11.78125-26.3125-26.3125v-40.035157zm0 0" fill="#ffc026"/><path d="m334.324219 150.488281v40.035157c0 14.53125-11.78125 26.3125-26.316407 26.3125-14.53125 0-26.3125-11.78125-26.3125-26.3125v-40.035157zm0 0" fill="#ffd775"/><path d="m386.332031 150.488281v40.035157c0 14.53125-11.78125 26.3125-26.316406 26.3125-14.53125 0-26.3125-11.78125-26.3125-26.3125v-40.035157zm0 0" fill="#ffc026"/><path d="m438.339844 150.488281v40.035157c0 14.53125-11.78125 26.3125-26.316406 26.3125-14.53125 0-26.3125-11.78125-26.3125-26.3125v-40.035157zm0 0" fill="#ffd775"/><path d="m490.347656 150.488281v40.035157c0 14.53125-11.78125 26.3125-26.3125 26.3125-14.535156 0-26.316406-11.78125-26.316406-26.3125v-40.035157zm0 0" fill="#ffc026"/><g fill="#ffd775"><path d="m172.476562 387.746094-123.921874 123.921875h58.679687l124.070313-124.070313zm0 0"/><path d="m48.058594 388.050781v67.488281l67.652344-67.652343zm0 0"/><path d="m463.941406 387.023438-68.195312.167968 68.195312 68.195313zm0 0"/><path d="m339.261719 387.332031-58.535157.144531 124.1875 124.191407h58.683594zm0 0"/><path d="m163.304688 511.667969h56.589843l36.277344-36.277344 36.007813 36.277344h56.625l-92.367188-93.136719zm0 0"/><path d="m352.773438 94.714844h-193.546876v-3.824219c0-50.199219 40.691407-90.890625 90.886719-90.890625h11.769531c50.199219 0 90.890626 40.691406 90.890626 90.890625zm0 0"/></g><path d="m261.882812 0h-11.769531c-5.730469 0-11.339843.535156-16.777343 1.550781 42.179687 7.875 74.109374 44.875 74.109374 89.339844v3.824219h45.328126v-3.824219c0-50.199219-40.691407-90.890625-90.890626-90.890625zm0 0" fill="#ffc026"/><path d="m87.566406 446.257812c-7.964844 0-15.46875 1.933594-22.097656 5.339844-2.609375-15.597656-16.164062-27.488281-32.503906-27.488281-18.035156 0-32.683594 14.488281-32.9531252 32.460937l-.0117188-.011718v55.117187h132.917969c1.980469-5.289062 3.066406-11.019531 3.066406-17 0-26.738281-21.679687-48.417969-48.417969-48.417969zm0 0" fill="#b2d94b"/><path d="m376.015625 494.675781c0 5.980469 1.085937 11.710938 3.066406 17h132.917969v-55.117187l-.011719.011718c-.269531-17.972656-14.914062-32.460937-32.953125-32.460937-16.339844 0-29.894531 11.890625-32.503906 27.488281-6.628906-3.40625-14.132812-5.339844-22.097656-5.339844-26.738282 0-48.417969 21.679688-48.417969 48.417969zm0 0" fill="#b2d94b"/><path d="m511.988281 456.570312c-.269531-17.972656-14.917969-32.460937-32.953125-32.460937-8.785156 0-16.761718 3.441406-22.667968 9.042969 6.226562 5.898437 10.15625 14.199218 10.292968 23.417968l.011719-.011718v55.117187h45.328125v-55.117187zm0 0" fill="#9cc042"/><path d="m496.722656 387.832031h-481.445312c-2.734375 0-4.949219-2.214843-4.949219-4.949219v-28.722656c0-2.730468 2.214844-4.949218 4.949219-4.949218h481.445312c2.734375 0 4.949219 2.21875 4.949219 4.949218v28.722656c0 2.734376-2.214844 4.949219-4.949219 4.949219zm0 0" fill="#ecedf0"/><path d="m496.722656 349.214844h-52.539062c2.734375 0 4.949218 2.214844 4.949218 4.949218v28.71875c0 2.734376-2.214843 4.949219-4.949218 4.949219h52.539062c2.734375 0 4.949219-2.214843 4.949219-4.949219v-28.71875c0-2.734374-2.214844-4.949218-4.949219-4.949218zm0 0" fill="#e2e2e2"/></svg>