<?xml version="1.0" encoding="iso-8859-1"?>
<!-- Generator: Adobe Illustrator 19.0.0, SVG Export Plug-In . SVG Version: 6.00 Build 0)  -->
<svg version="1.1" id="Capa_1" xmlns="http://www.w3.org/2000/svg" xmlns:xlink="http://www.w3.org/1999/xlink" x="0px" y="0px"
	 viewBox="0 0 512 512" style="enable-background:new 0 0 512 512;" xml:space="preserve">
<rect x="27.313" y="146.172" style="fill:#FF9900;" width="457.02" height="325.33"/>
<rect x="256" y="146.172" style="fill:#DB8400;" width="228.33" height="325.33"/>
<rect y="462.831" style="fill:#60DD4D;" width="512" height="30"/>
<rect x="256" y="462.831" style="fill:#1EBA4A;" width="256" height="30"/>
<rect x="186.67" y="395.172" style="fill:#BF7300;" width="138.67" height="30"/>
<g>
	<rect x="256" y="395.172" style="fill:#804D00;" width="69.33" height="30"/>
	<rect x="96" y="161.012" style="fill:#804D00;" width="320" height="182.49"/>
</g>
<rect x="256" y="161.012" style="fill:#5F3400;" width="160" height="182.49"/>
<polygon style="fill:#BF7300;" points="435.333,328.501 435.333,151.502 405.333,151.502 405.333,328.501 106.667,328.501 
	106.667,151.502 76.667,151.502 76.667,328.501 0,328.501 0,358.501 512,358.501 512,328.501 "/>
<polygon style="fill:#804D00;" points="435.333,328.501 435.333,151.502 405.333,151.502 405.333,328.501 256,328.501 256,358.501 
	512,358.501 512,328.501 "/>
<path style="fill:#FFE7C2;" d="M510.925,174.835c0.687-2.036,1.075-4.208,1.075-6.473v-20.647L448,19.169H64L0,147.715v20.647
	c0,2.265,0.388,4.437,1.075,6.473L510.925,174.835L510.925,174.835z"/>
<path style="fill:#FFDAA3;" d="M448,19.169H256.101v155.667h254.824c0.687-2.036,1.075-4.208,1.075-6.473v-20.647L448,19.169z"/>
<polygon style="fill:#FFAE33;" points="384,166.505 341.333,19.169 256,19.169 256,175.169 "/>
<path style="fill:#FFC266;" d="M128,166.505l42.667-147.336H64L0,147.715v20.647c0,2.39,0.436,4.674,1.197,6.806L128,166.505z"/>
<path style="fill:#FFE7C2;" d="M128,175.844c0,35.346-28.653,64-64,64c-35.346,0-64-28.654-64-64v-9.339h128V175.844z"/>
<path style="fill:#FFC266;" d="M256,175.844c0,35.346-28.654,64-64,64s-64-28.654-64-64v-9.339h128V175.844z"/>
<path style="fill:#FFDAA3;" d="M384,175.844c0,35.346-28.654,64-64,64c-35.347,0-64-28.654-64-64v-9.339h128V175.844z"/>
<path style="fill:#FFAE33;" d="M512,175.844c0,35.346-28.654,64-64,64c-35.347,0-64-28.654-64-64v-9.339h128V175.844z"/>
<g>
</g>
<g>
</g>
<g>
</g>
<g>
</g>
<g>
</g>
<g>
</g>
<g>
</g>
<g>
</g>
<g>
</g>
<g>
</g>
<g>
</g>
<g>
</g>
<g>
</g>
<g>
</g>
<g>
</g>
</svg>
